<svg xmlns="http://www.w3.org/2000/svg" viewBox="0 0 64 64">
  <defs>
    <linearGradient id="bg" x1="0%" x2="100%" y1="0%" y2="100%">
      <stop offset="0%" stop-color="#bef264" />
      <stop offset="100%" stop-color="#22c55e" />
    </linearGradient>
    <linearGradient id="flame" x1="0%" x2="100%" y1="0%" y2="100%">
      <stop offset="0%" stop-color="#fde68a" />
      <stop offset="100%" stop-color="#f59e0b" />
    </linearGradient>
  </defs>
  <rect width="64" height="64" rx="18" fill="#08120d" />
  <circle cx="32" cy="32" r="22" fill="url(#bg)" opacity="0.14" />
  <path d="M35.5 10c-2.7 6.4-.4 10.9 2.9 14.2 2.3 2.2 5.1 4.4 5.1 8.5 0 6.8-5.1 11.8-11.9 11.8-6.9 0-12.1-5-12.1-11.7 0-5.4 3.4-8.9 6.4-12.1C28.3 18 31 15.3 35.5 10Z" fill="url(#flame)" />
  <path d="M19 31c4.7 5.3 9.1 7.8 13.2 7.8 3.9 0 7-1.2 10.3-4-2.4 6.8-8.1 10.7-15 10.7-8.7 0-15.5-7-15.5-15.3 0-7 4.5-13.3 11.4-17.8-1.5 5.3-1 11.6 2.9 16.1" fill="#84cc16" opacity="0.82" />
</svg>
